<svg width="20" height="20" viewBox="0 0 20 20" fill="none" xmlns="http://www.w3.org/2000/svg">
<path d="M17.2521 13.8979V7.31833H2.89673V13.8979C2.89673 15.5496 4.23571 16.8886 5.88743 16.8886H14.2614C15.9131 16.8886 17.2521 15.5496 17.2521 13.8979ZM7.67822 10.0081C7.67822 10.5027 7.27734 10.9035 6.78282 10.9035C6.28831 10.9035 5.88743 10.5027 5.88743 10.0081C5.88743 9.51363 6.28831 9.11275 6.78282 9.11275C7.27734 9.11275 7.67822 9.51363 7.67822 10.0081ZM7.67822 12.9988C7.67822 13.4934 7.27734 13.8942 6.78282 13.8942C6.28831 13.8942 5.88743 13.4934 5.88743 12.9988C5.88743 12.5043 6.28831 12.1035 6.78282 12.1035C7.27734 12.1035 7.67822 12.5043 7.67822 12.9988ZM10.9703 10.0081C10.9703 10.5027 10.5694 10.9035 10.0749 10.9035C9.58042 10.9035 9.17954 10.5027 9.17954 10.0081C9.17954 9.51363 9.58042 9.11275 10.0749 9.11275C10.5694 9.11275 10.9703 9.51363 10.9703 10.0081ZM10.9703 12.9988C10.9703 13.4934 10.5694 13.8942 10.0749 13.8942C9.58042 13.8942 9.17954 13.4934 9.17954 12.9988C9.17954 12.5043 9.58042 12.1035 10.0749 12.1035C10.5694 12.1035 10.9703 12.5043 10.9703 12.9988ZM14.2578 10.0081C14.2578 10.5027 13.8569 10.9035 13.3624 10.9035C12.8679 10.9035 12.467 10.5027 12.467 10.0081C12.467 9.51363 12.8679 9.11275 13.3624 9.11275C13.8569 9.11275 14.2578 9.51363 14.2578 10.0081ZM17.2521 5.52391C17.2521 3.87219 15.9131 2.5332 14.2614 2.5332H5.88743C4.23571 2.5332 2.89673 3.87219 2.89673 5.52391V6.12205H17.2521V5.52391Z" fill="#404851"/>
</svg>
