<svg width="30" height="30" viewBox="0 0 30 30" fill="none" xmlns="http://www.w3.org/2000/svg">
<path fill-rule="evenodd" clip-rule="evenodd" d="M5.27758 6.70512C6.54181 5.44061 8.21622 4.66938 9.99891 4.53048C11.7816 4.39159 13.5553 4.89418 15.0001 5.94762C16.5266 4.84316 18.4129 4.35352 20.2839 4.57604C22.1549 4.79856 23.8737 5.71694 25.0986 7.14864C26.3235 8.58034 26.9649 10.4205 26.8952 12.3034C26.8256 14.1863 26.05 15.9741 24.7226 17.3114L17.6513 24.3826C16.9481 25.0856 15.9944 25.4806 15.0001 25.4806C14.0057 25.4806 13.0521 25.0856 12.3488 24.3826L5.27758 17.3126C3.87116 15.9061 3.08105 13.9985 3.08105 12.0095C3.08105 10.0205 3.87116 8.11163 5.27758 6.70512Z" fill="#74C43C"/>
</svg>
