<svg width="12" height="14" viewBox="0 0 12 14" fill="none" xmlns="http://www.w3.org/2000/svg">
<path d="M9.96001 9.80042C11.0103 8.74955 11.6004 7.32459 11.6004 5.83882C11.6004 4.35305 11.0103 2.92809 9.96001 1.87722C9.43999 1.35715 8.82263 0.944608 8.14317 0.663146C7.46371 0.381684 6.73546 0.236816 6.00001 0.236816C5.26456 0.236816 4.53631 0.381684 3.85685 0.663146C3.17739 0.944608 2.56002 1.35715 2.04001 1.87722C0.98968 2.92809 0.399658 4.35305 0.399658 5.83882C0.399658 7.32459 0.98968 8.74955 2.04001 9.80042L3.25681 10.9996L4.89121 12.5876L4.99761 12.682C5.61761 13.1844 6.52561 13.1524 7.10961 12.5876L9.05761 10.6916L9.96001 9.80042ZM6.00001 8.23642C5.36349 8.23642 4.75304 7.98356 4.30295 7.53348C3.85286 7.08339 3.60001 6.47294 3.60001 5.83642C3.60001 5.1999 3.85286 4.58945 4.30295 4.13936C4.75304 3.68928 5.36349 3.43642 6.00001 3.43642C6.63653 3.43642 7.24698 3.68928 7.69706 4.13936C8.14715 4.58945 8.40001 5.1999 8.40001 5.83642C8.40001 6.47294 8.14715 7.08339 7.69706 7.53348C7.24698 7.98356 6.63653 8.23642 6.00001 8.23642Z" fill="#404851"/>
</svg>
