<svg width="24" height="24" viewBox="0 0 24 24" fill="none" xmlns="http://www.w3.org/2000/svg">
<path d="M12 22.5C10.95 22.5 10.0627 22.1373 9.338 21.412C8.61333 20.6867 8.25067 19.7993 8.25 18.75C8.25 17.8833 8.50833 17.121 9.025 16.463C9.54167 15.805 10.2 15.3587 11 15.124V13H7C6.45 13 5.97933 12.8043 5.588 12.413C5.19667 12.0217 5.00067 11.5507 5 11V9H3.5C3.21667 9 2.97933 8.904 2.788 8.712C2.59667 8.52 2.50067 8.28267 2.5 8V3C2.5 2.71667 2.596 2.47933 2.788 2.288C2.98 2.09667 3.21733 2.00067 3.5 2H8.5C8.78333 2 9.021 2.096 9.213 2.288C9.405 2.48 9.50067 2.71733 9.5 3V8C9.5 8.28333 9.404 8.521 9.212 8.713C9.02 8.905 8.78267 9.00067 8.5 9H7V11H17V8.875C16.2 8.64167 15.5417 8.19567 15.025 7.537C14.5083 6.87833 14.25 6.116 14.25 5.25C14.25 4.2 14.6127 3.31267 15.338 2.588C16.0633 1.86333 16.9507 1.50067 18 1.5C19.0493 1.49933 19.937 1.862 20.663 2.588C21.389 3.314 21.7513 4.20133 21.75 5.25C21.75 6.11667 21.4917 6.87933 20.975 7.538C20.4583 8.19667 19.8 8.64233 19 8.875V11C19 11.55 18.8043 12.021 18.413 12.413C18.0217 12.805 17.5507 13.0007 17 13H13V15.125C13.8 15.3583 14.4583 15.8043 14.975 16.463C15.4917 17.1217 15.75 17.884 15.75 18.75C15.75 19.8 15.3873 20.6877 14.662 21.413C13.9367 22.1383 13.0493 22.5007 12 22.5Z" fill="#4B3A2A"/>
</svg>
